<svg fill="none" xmlns="http://www.w3.org/2000/svg">
<symbol viewBox="0 0 71 72" id="go_icon">
<path d="M52.5368 18.5368L46.3194 41.7401L29.3334 24.7541L52.5368 18.5368Z" fill="#B70000"/>
<path d="M46.2326 41.6531L40.0152 64.8565L23.0292 47.8704L46.2326 41.6531Z" fill="#04B100"/>
<path d="M29.4205 24.8414L23.2032 48.0448L6.21718 31.0588L29.4205 24.8414Z" fill="#0075B7"/>
<path d="M46.3196 41.7402L23.1162 47.9575L29.3336 24.7542L46.3196 41.7402Z" fill="#FFB800"/>
</symbol>
 <symbol id="heart" viewBox="0 0 24 24">
        <path
          d="M12,21.35L10.55,20.03C5.4,15.36 2,12.27 2,8.5C2,5.41 4.42,3 7.5,3C9.24,3 10.91,3.81 12,5.08C13.09,3.81 14.76,3 16.5,3C19.58,3 22,5.41 22,8.5C22,12.27 18.6,15.36 13.45,20.03L12,21.35Z"
        />
      </symbol>
      <symbol id="comment" viewBox="0 0 24 24">
        <path
          d="M9,22A1,1 0 0,1 8,21V18H4A2,2 0 0,1 2,16V4C2,2.89 2.9,2 4,2H20A2,2 0 0,1 22,4V16A2,2 0 0,1 20,18H13.9L10.2,21.71C10,21.9 9.75,22 9.5,22V22H9Z"
        />
      </symbol>
      <symbol id="eyeopen" viewBox="0 0 24 24">
        <path
          d="M12,9A3,3 0 0,0 9,12A3,3 0 0,0 12,15A3,3 0 0,0 15,12A3,3 0 0,0 12,9M12,17A5,5 0 0,1 7,12A5,5 0 0,1 12,7A5,5 0 0,1 17,12A5,5 0 0,1 12,17M12,4.5C7,4.5 2.73,7.61 1,12C2.73,16.39 7,19.5 12,19.5C17,19.5 21.27,16.39 23,12C21.27,7.61 17,4.5 12,4.5Z"
        />
      </symbol>
      <symbol id="eyeoff" viewBox="0 0 24 24">
        <path
          d="M11.83,9L15,12.16C15,12.11 15,12.05 15,12A3,3 0 0,0 12,9C11.94,9 11.89,9 11.83,9M7.53,9.8L9.08,11.35C9.03,11.56 9,11.77 9,12A3,3 0 0,0 12,15C12.22,15 12.44,14.97 12.65,14.92L14.2,16.47C13.53,16.8 12.79,17 12,17A5,5 0 0,1 7,12C7,11.21 7.2,10.47 7.53,9.8M2,4.27L4.28,6.55L4.73,7C3.08,8.3 1.78,10 1,12C2.73,16.39 7,19.5 12,19.5C13.55,19.5 15.03,19.2 16.38,18.66L16.81,19.08L19.73,22L21,20.73L3.27,3M12,7A5,5 0 0,1 17,12C17,12.64 16.87,13.26 16.64,13.82L19.57,16.75C21.07,15.5 22.27,13.86 23,12C21.27,7.61 17,4.5 12,4.5C10.6,4.5 9.26,4.75 8,5.2L10.17,7.35C10.74,7.13 11.35,7 12,7Z"
        />
      </symbol>
      <symbol id="share" viewBox="0 0 24 24">
        <path
          d="M18,16.08C17.24,16.08 16.56,16.38 16.04,16.85L8.91,12.7C8.96,12.47 9,12.24 9,12C9,11.76 8.96,11.53 8.91,11.3L15.96,7.19C16.5,7.69 17.21,8 18,8A3,3 0 0,0 21,5A3,3 0 0,0 18,2A3,3 0 0,0 15,5C15,5.24 15.04,5.47 15.09,5.7L8.04,9.81C7.5,9.31 6.79,9 6,9A3,3 0 0,0 3,12A3,3 0 0,0 6,15C6.79,15 7.5,14.69 8.04,14.19L15.16,18.34C15.11,18.55 15.08,18.77 15.08,19C15.08,20.61 16.39,21.91 18,21.91C19.61,21.91 20.92,20.61 20.92,19A2.92,2.92 0 0,0 18,16.08Z"
        />
      </symbol>
      <symbol id="user" viewBox="0 0 24 24">
        <path
          d="M12,4A4,4 0 0,1 16,8A4,4 0 0,1 12,12A4,4 0 0,1 8,8A4,4 0 0,1 12,4M12,14C16.42,14 20,15.79 20,18V20H4V18C4,15.79 7.58,14 12,14Z"
        />
      </symbol>
      <symbol id="email" viewBox="0 0 24 24">
        <path
          d="M20,8L12,13L4,8V6L12,11L20,6M20,4H4C2.89,4 2,4.89 2,6V18A2,2 0 0,0 4,20H20A2,2 0 0,0 22,18V6C22,4.89 21.1,4 20,4Z"
        />
      </symbol>
      <symbol id="check" viewBox="0 0 24 24">
        <path d="M21,7L9,19L3.5,13.5L4.91,12.09L9,16.17L19.59,5.59L21,7Z" />
      </symbol>
      <symbol id="close" viewBox="0 0 24 24">
        <path
          d="M19,6.41L17.59,5L12,10.59L6.41,5L5,6.41L10.59,12L5,17.59L6.41,19L12,13.41L17.59,19L19,17.59L13.41,12L19,6.41Z"
        />
      </symbol>
      <symbol id="magnify" viewBox="0 0 24 24">
        <path
          d="M9.5,3A6.5,6.5 0 0,1 16,9.5C16,11.11 15.41,12.59 14.44,13.73L14.71,14H15.5L20.5,19L19,20.5L14,15.5V14.71L13.73,14.44C12.59,15.41 11.11,16 9.5,16A6.5,6.5 0 0,1 3,9.5A6.5,6.5 0 0,1 9.5,3M9.5,5C7,5 5,7 5,9.5C5,12 7,14 9.5,14C12,14 14,12 14,9.5C14,7 12,5 9.5,5Z"
        />
      </symbol>
      <symbol id="sunny" viewBox="0 0 24 24">
        <path
          d="M3.55,18.54L4.96,19.95L6.76,18.16L5.34,16.74M11,22.45C11.32,22.45 13,22.45 13,22.45V19.5H11M12,5.5A6,6 0 0,0 6,11.5A6,6 0 0,0 12,17.5A6,6 0 0,0 18,11.5C18,8.18 15.31,5.5 12,5.5M20,12.5H23V10.5H20M17.24,18.16L19.04,19.95L20.45,18.54L18.66,16.74M20.45,4.46L19.04,3.05L17.24,4.84L18.66,6.26M13,0.55H11V3.5H13M4,10.5H1V12.5H4M6.76,4.84L4.96,3.05L3.55,4.46L5.34,6.26L6.76,4.84Z"
        />
      </symbol>
      <symbol id="moon" viewBox="0 0 24 24">
        <path
          d="M12 2A9.91 9.91 0 0 0 9 2.46A10 10 0 0 1 9 21.54A10 10 0 1 0 12 2Z"
        />
      </symbol>
      <symbol id="setting" viewBox="0 0 24 24">
        <path
          d="M12,15.5A3.5,3.5 0 0,1 8.5,12A3.5,3.5 0 0,1 12,8.5A3.5,3.5 0 0,1 15.5,12A3.5,3.5 0 0,1 12,15.5M19.43,12.97C19.47,12.65 19.5,12.33 19.5,12C19.5,11.67 19.47,11.34 19.43,11L21.54,9.37C21.73,9.22 21.78,8.95 21.66,8.73L19.66,5.27C19.54,5.05 19.27,4.96 19.05,5.05L16.56,6.05C16.04,5.66 15.5,5.32 14.87,5.07L14.5,2.42C14.46,2.18 14.25,2 14,2H10C9.75,2 9.54,2.18 9.5,2.42L9.13,5.07C8.5,5.32 7.96,5.66 7.44,6.05L4.95,5.05C4.73,4.96 4.46,5.05 4.34,5.27L2.34,8.73C2.21,8.95 2.27,9.22 2.46,9.37L4.57,11C4.53,11.34 4.5,11.67 4.5,12C4.5,12.33 4.53,12.65 4.57,12.97L2.46,14.63C2.27,14.78 2.21,15.05 2.34,15.27L4.34,18.73C4.46,18.95 4.73,19.03 4.95,18.95L7.44,17.94C7.96,18.34 8.5,18.68 9.13,18.93L9.5,21.58C9.54,21.82 9.75,22 10,22H14C14.25,22 14.46,21.82 14.5,21.58L14.87,18.93C15.5,18.67 16.04,18.34 16.56,17.94L19.05,18.95C19.27,19.03 19.54,18.95 19.66,18.73L21.66,15.27C21.78,15.05 21.73,14.78 21.54,14.63L19.43,12.97Z"
        />
      </symbol>
      <symbol id="delete" viewBox="0 0 24 24">
        <path
          d="M19,4H15.5L14.5,3H9.5L8.5,4H5V6H19M6,19A2,2 0 0,0 8,21H16A2,2 0 0,0 18,19V7H6V19Z"
        />
      </symbol>
      <symbol id="trash" viewBox="0 0 24 24">
        <path
          d="M20.37,8.91L19.37,10.64L7.24,3.64L8.24,1.91L11.28,3.66L12.64,3.29L16.97,5.79L17.34,7.16L20.37,8.91M6,19V7H11.07L18,11V19A2,2 0 0,1 16,21H8A2,2 0 0,1 6,19Z"
        />
      </symbol>
      <symbol id="menu" viewBox="0 0 24 24">
        <path
          d="M16,12A2,2 0 0,1 18,10A2,2 0 0,1 20,12A2,2 0 0,1 18,14A2,2 0 0,1 16,12M10,12A2,2 0 0,1 12,10A2,2 0 0,1 14,12A2,2 0 0,1 12,14A2,2 0 0,1 10,12M4,12A2,2 0 0,1 6,10A2,2 0 0,1 8,12A2,2 0 0,1 6,14A2,2 0 0,1 4,12Z"
        />
      </symbol>
      <symbol id="menu1" viewBox="0 0 24 24">
        <path
          d="M12,16A2,2 0 0,1 14,18A2,2 0 0,1 12,20A2,2 0 0,1 10,18A2,2 0 0,1 12,16M12,10A2,2 0 0,1 14,12A2,2 0 0,1 12,14A2,2 0 0,1 10,12A2,2 0 0,1 12,10M12,4A2,2 0 0,1 14,6A2,2 0 0,1 12,8A2,2 0 0,1 10,6A2,2 0 0,1 12,4Z"
        />
      </symbol>
      <symbol id="menu2" viewBox="0 0 24 24">
        <path d="M3,6H21V8H3V6M3,11H21V13H3V11M3,16H21V18H3V16Z" />
      </symbol>
</svg>